<?xml version="1.0" standalone="no"?>
<!DOCTYPE svg PUBLIC "-//W3C//DTD SVG 1.1//EN" "http://www.w3.org/Graphics/SVG/1.1/DTD/svg11.dtd" >
<svg xmlns="http://www.w3.org/2000/svg">
<metadata>Generated by IcoMoon</metadata>
<defs>
<font id="icomoon" horiz-adv-x="1024">
<font-face units-per-em="1024" ascent="960" descent="-64" />
<missing-glyph horiz-adv-x="1024" />
<glyph unicode="&#x20;" d="" horiz-adv-x="512" />
<glyph unicode="&#xe600;" d="M458.62 501.824c126.524 0 229.072 102.58 229.072 229.072 0.032 126.524-102.518 229.104-229.072 229.104s-229.040-102.582-229.040-229.104c0-126.492 102.516-229.072 229.040-229.072zM917.112 275.506c-1.49 125.192-103.342 226.318-228.946 226.318h-81.298l-148.186-211.496-148.186 211.496h-80.506c-125.572 0-227.456-101.092-228.946-226.318h-1.044v-339.54h917.206v339.538h-0.096z" horiz-adv-x="918" />
<glyph unicode="&#xe601;" d="M233.157 502.549l-58.843 41.194 201.241 287.457 58.843-41.194-201.241-287.457zM383.895 230.314c0-33.546-27.194-60.74-60.74-60.74s-60.74 27.194-60.74 60.74c0 33.546 27.194 60.74 60.74 60.74s60.74-27.194 60.74-60.74zM536.579 230.314c0-33.546-27.194-60.74-60.74-60.74s-60.74 27.194-60.74 60.74c0 33.546 27.194 60.74 60.74 60.74s60.74-27.194 60.74-60.74zM303.063 378.504c0-33.546-27.194-60.74-60.74-60.74s-60.74 27.194-60.74 60.74c0 33.546 27.194 60.74 60.74 60.74s60.74-27.194 60.74-60.74zM458.752 378.504c0-33.554-27.201-60.754-60.754-60.754s-60.754 27.201-60.754 60.754c0 33.554 27.201 60.754 60.754 60.754s60.754-27.201 60.754-60.754zM801.242 226.831c-15.201 0-29.954 1.373-44.404 3.873-15.505-37.483-30.099-72.401-38.986-94.068h-483.982c-24.5 58.847-90.261 217.202-106.069 255.538-21.617 52.532-40.864 82.884-91.366 112.651l-36.435-61.939c33.487-19.688 43.703-35.185 61.368-78.051 19.478-47.403 115.309-277.891 115.309-277.891l9.197-22.137h579.878l9.212 22.137c0 0 29.348 70.847 58.883 141.969-10.606-1.308-21.523-2.081-32.606-2.081zM665.854 705.821l-86.128 125.143-59.179-40.691 89.741-130.424c16.256 17.773 34.954 33.256 55.567 45.972zM546.853 438.832c-30.308-3.461-53.912-29.051-53.912-60.357 0-33.502 27.216-60.74 60.761-60.74 14.941 0 28.719 5.549 39.289 14.493-22.86 31.038-38.949 67.271-46.138 106.603zM631.088 290.916c-0.86 0.036-1.683 0.173-2.558 0.173-33.509 0-60.725-27.245-60.725-60.783 0-33.495 27.245-60.733 60.725-60.733 33.567 0 60.783 27.202 60.783 60.733 0 8.829-1.915 17.181-5.296 24.745-19.182 9.783-36.912 21.848-52.93 35.864zM801.242 708.292c-123.018 0-222.758-99.798-222.758-222.802 0-123.069 99.725-222.765 222.758-222.765s222.758 99.725 222.758 222.758c0 123.033-99.725 222.809-222.758 222.809zM912.628 453.527h-80.428v-79.322h-62.864v79.322h-79.517v62.864h79.517v80.507h62.864v-80.507h80.428v-62.864z" />
<glyph unicode="&#xe602;" d="M233.014 502.528l-58.842 41.212 201.352 287.48 58.842-41.212-201.352-287.48zM801.236 708.298c-123.026 0-222.75-99.798-222.75-222.802 0-123.062 99.726-222.758 222.75-222.758 123.034 0 222.764 99.726 222.764 222.758 0 123.048-99.732 222.802-222.764 222.802zM912.62 453.534h-80.414v-79.328h-62.864v79.33h-79.504v62.87h79.504v80.508h62.864v-80.522h80.414v-62.858zM665.846 705.836l-86.134 125.15-59.186-40.706 89.762-130.43c16.25 17.78 34.94 33.278 55.56 45.986zM801.236 226.832c-15.144 0-29.954 1.374-44.404 3.88-15.504-37.482-30.12-72.46-39.014-94.076h-483.946c-24.492 58.846-90.268 217.216-106.062 255.544-21.624 52.612-40.864 82.884-91.352 112.652l-36.458-61.94c33.488-19.702 43.704-35.186 61.368-78.058 19.478-47.322 115.308-277.906 115.308-277.906l9.198-22.13h579.9l9.19 22.13c0 0 29.356 70.846 58.89 141.984-10.606-1.3-21.524-2.082-32.62-2.082z" />
<glyph unicode="&#xe603;" d="M0 831.982h147.206v-768.022h-147.206v768.022zM242.462 831.982h73.564v-768.022h-73.564v768.022zM366.050 831.982h36.804v-768.022h-36.804v768.022zM454.916 831.982h147.18v-768.022h-147.178v768.022zM647.12 831.982h73.6v-768.022h-73.6v768.022zM783.050 831.982h36.854v-768.022h-36.854v768.022zM950.414 831.982h73.606v-768.022h-73.606v768.022z" />
<glyph unicode="&#xe604;" d="M352.726 244.562c0-34.462-27.938-62.4-62.402-62.4s-62.402 27.938-62.402 62.4c0 34.462 27.938 62.4 62.402 62.4s62.402-27.938 62.402-62.4zM672.53 244.554c0-34.458-27.934-62.394-62.394-62.394s-62.394 27.934-62.394 62.394c0 34.458 27.934 62.394 62.394 62.394s62.394-27.934 62.394-62.394zM512.63 244.554c0-34.458-27.936-62.394-62.394-62.394s-62.394 27.934-62.394 62.394c0 34.458 27.936 62.394 62.394 62.394s62.394-27.934 62.394-62.394zM522.562 637.148c0-34.464-27.938-62.4-62.402-62.4s-62.402 27.938-62.402 62.4c0 34.464 27.938 62.4 62.402 62.4s62.402-27.938 62.402-62.4zM806.746 776.366c0-34.462-27.938-62.402-62.4-62.402s-62.4 27.938-62.4 62.402c0 34.462 27.938 62.402 62.4 62.402s62.4-27.938 62.4-62.402zM598.808 410.294c0-34.452-27.928-62.38-62.38-62.38s-62.38 27.928-62.38 62.38c0 34.452 27.928 62.38 62.38 62.38s62.38-27.928 62.38-62.38zM772.956 57.234h-653.65l-119.306 408.336 72.284 21.19 103.474-354.172h539.94c21.37 76.944 80.998 292.24 96.684 352.994 23.712 91.966 81.404 155.148 181.612 198.656l30.004-69.092c-78.23-33.92-120.996-79.74-138.654-148.414-19.27-74.742-101.192-369.424-104.61-381.916l-7.78-27.586z" />
<glyph unicode="&#xe605;" d="M233.080 502.562l-58.842 41.216 201.318 287.398 58.842-41.216-201.318-287.398zM383.894 230.322c0-33.546-27.194-60.74-60.74-60.74s-60.74 27.194-60.74 60.74c0 33.546 27.194 60.74 60.74 60.74s60.74-27.194 60.74-60.74zM536.578 230.322c0-33.546-27.194-60.74-60.74-60.74s-60.74 27.194-60.74 60.74c0 33.546 27.194 60.74 60.74 60.74s60.74-27.194 60.74-60.74zM303.062 378.504c0-33.546-27.194-60.74-60.74-60.74s-60.74 27.194-60.74 60.74c0 33.546 27.194 60.74 60.74 60.74s60.74-27.194 60.74-60.74zM458.752 378.51c0-33.554-27.202-60.754-60.754-60.754s-60.754 27.202-60.754 60.754c0 33.554 27.202 60.754 60.754 60.754s60.754-27.202 60.754-60.754zM801.242 226.838c-15.202 0-29.954 1.38-44.404 3.874-15.504-37.482-30.1-72.46-38.994-94.076h-483.976c-24.486 58.854-90.26 217.216-106.054 255.544-21.632 52.596-40.856 82.878-91.352 112.652l-36.464-61.954c33.488-19.702 43.718-35.184 61.376-78.066 19.478-47.308 115.308-277.892 115.308-277.892l9.19-22.136h579.878l9.182 22.136c0 0 29.398 70.856 58.956 142.004-10.65-1.3-21.566-2.088-32.65-2.088zM665.854 705.828l-86.128 125.144-59.178-40.704 89.74-130.424c16.256 17.78 34.954 33.278 55.568 45.986zM585.412 430.248c5.874-23.020 15.366-44.542 27.764-64.078 0.86 3.98 1.3 8.1 1.3 12.312-0.036 21.928-11.682 41.066-29.066 51.766zM546.852 438.86c-30.308-3.462-53.912-29.102-53.912-60.356 0-33.53 27.216-60.732 60.762-60.732 14.962 0 28.72 5.542 39.288 14.558-22.86 30.938-38.948 67.184-46.138 106.532zM631.066 290.932c-0.838 0.036-1.676 0.158-2.558 0.158-33.51 0-60.726-27.246-60.726-60.784 0-33.502 27.246-60.726 60.726-60.726 33.568 0 60.784 27.196 60.784 60.726 0 8.828-1.936 17.196-5.318 24.754-19.14 9.79-36.89 21.856-52.908 35.872zM801.242 708.292c-123.018 0-222.758-99.798-222.758-222.794 0-123.070 99.726-222.738 222.758-222.738s222.758 99.726 222.758 222.736c0 123.048-99.726 222.794-222.758 222.794zM782.422 375.498l-112.318 112.318 50.798 50.798 61.542-61.512 110.332 110.332 50.806-50.812-161.158-161.124z" />
<glyph unicode="&#xe606;" d="M928.602 837.364h-624.376c-52.612 0-95.406-42.8-95.406-95.334v-47.944h71.54v47.938c0 13.112 10.678 23.856 23.856 23.856h624.376c13.164 0 23.856-10.686 23.856-23.856v-370.204c0-13.214-10.686-23.9-23.856-23.9h-41.796v-71.534h41.796c52.582 0 95.398 42.8 95.398 95.434v370.154c0.006 52.59-42.808 95.39-95.39 95.39zM719.78 619.576h-624.376c-52.604 0-95.406-42.758-95.406-95.398v-370.126c0-52.606 42.8-95.398 95.406-95.398h624.376c52.606 0 95.398 42.794 95.398 95.398v370.126c0 52.62-42.794 95.398-95.398 95.398zM95.406 548.036h624.37c13.164 0 23.856-10.65 23.856-23.858v-42.28h-672.082v42.28c0 13.178 10.678 23.856 23.856 23.856zM719.78 130.176h-624.376c-13.178 0-23.864 10.686-23.864 23.864v208.562h672.068v-208.496c0.028-13.25-10.664-23.928-23.828-23.928z" />
<glyph unicode="&#xe607;" d="M963.052 605.2c-18.020 46.824-73.304 84.79-123.532 84.79h-101.062v137.576h-738.456v-666.23h142.888c15.714-53.732 65.218-92.904 123.988-92.904 58.738 0 108.206 39.224 123.95 92.904h233.662c15.722-53.732 65.176-92.904 123.986-92.904 58.724 0 108.216 39.224 123.878 92.904h60.726c50.178 0 90.86 40.676 90.86 90.86v194.914l-60.884 158.088zM266.822 133.5c-35.396 0-64.236 28.784-64.236 64.258 0 35.374 28.77 64.15 64.236 64.15 35.372 0 64.172-28.778 64.172-64.15 0-35.474-28.784-64.258-64.172-64.258zM748.4 133.5c-35.374 0-64.178 28.784-64.178 64.258 0 35.374 28.784 64.15 64.178 64.15 35.38 0 64.164-28.778 64.164-64.15 0-35.474-28.784-64.258-64.164-64.258zM951.23 252.182c0-10.086-8.128-18.214-18.172-18.214h-60.732c-15.714 53.624-65.19 92.87-123.942 92.87-58.76 0-108.222-39.254-123.98-92.87h-233.624c-15.714 53.624-65.176 92.87-123.894 92.87-58.824 0-108.228-39.254-123.972-92.87h-70.226v520.9h593.056v-137.576h173.782c20.28 0 48.37-19.29 55.668-38.226l56.022-145.488 0.014-181.396z" />
<glyph unicode="&#xe608;" d="M948.284 157.754h-872.558v161.296c-46.16 25.756-75.724 74.808-75.724 128.95s29.564 103.202 75.724 128.972v161.274h872.558v-161.266c46.21-25.742 75.716-74.808 75.716-128.972 0-54.136-29.564-103.192-75.716-128.956v-161.296zM147.758 229.794h728.486v138.27l24.39 8.316c30.698 10.462 51.326 39.254 51.326 71.62 0 32.376-20.626 61.174-51.332 71.642l-24.384 8.316v138.25h-728.486v-138.264l-24.384-8.33c-30.706-10.47-51.326-39.29-51.326-71.636 0-32.376 20.62-61.166 51.326-71.628l24.39-8.316-0.008-138.24zM427.448 459.878c-40.46 0-73.376 32.938-73.376 73.346 0 40.488 32.966 73.37 73.376 73.37s73.346-32.966 73.346-73.37c0-40.466-32.902-73.346-73.346-73.346zM427.448 566.408c-18.294 0-33.206-14.882-33.206-33.206s14.882-33.17 33.206-33.17c18.242 0 33.162 14.846 33.162 33.17s-14.882 33.206-33.162 33.206zM594.212 293.092c-40.452 0-73.346 32.966-73.346 73.37s32.938 73.34 73.346 73.34c19.6 0 38.082-7.68 51.882-21.524 13.93-13.866 21.524-32.294 21.524-51.89-0.044-40.38-32.952-73.298-73.404-73.298zM594.212 399.63c-18.286 0-33.17-14.884-33.17-33.17 0-18.302 14.846-33.206 33.17-33.206s33.206 14.876 33.206 33.206c0 8.828-3.462 17.152-9.716 23.438-6.294 6.278-14.63 9.732-23.488 9.732zM399.764 310.262l-28.44 28.414 250.502 250.75 28.442-28.414-250.502-250.75z" />
<glyph unicode="&#xe609;" d="M938.602 757.934c-7.298 7.21-14.904 13.706-22.592 20.020l-4.442-88.598c44.418-53.508 57.692-109.84 37.974-129.896-5.83-5.874-14.948-8.88-27.246-9.068-36.016-0.276-85.044 24.882-124.838 64.114-22.586 22.282-39.418 46.024-50.51 68.196 16.994 21.646 15.324 52.986-4.668 72.704-21.574 21.256-56.304 20.974-77.558-0.556-21.212-21.524-20.924-56.274 0.586-77.516 5.044-4.972 10.822-8.692 16.986-11.314 14.204-33.488 37.432-67.596 68.788-98.592 53.276-52.532 117.514-83.548 171.778-83.152 29.954 0.174 55.544 10.138 73.904 28.748 52.502 53.486 27.006 161.028-58.16 244.91zM789.494 494.326c-3.308-6.61-7.376-12.694-11.596-16.972l-381.612-381.642-307.968 307.962 381.592 381.648c9.754 9.668 28.718 18.446 42.294 19.486l262.322 21.27c22.822-0.454 41.802-19.282 42.374-42.114l-9.768-131.060c4.32-5.028 8.77-9.962 13.418-14.732 15.144-15.106 30.712-26.942 45.386-35.72l13.106 176.858 0.188 3.092-0.108 3.078c-1.394 56.744-46.918 101.942-103.664 102.998l-3.114 0.152-3.092-0.224-262.33-21.286c-28.48-2.26-61.23-17.448-81.432-37.634l-425.488-425.814 396.294-396.286 44.1 44.174 381.642 381.62c8.908 8.88 16.718 20.324 23.034 32.742-18.648 7.19-37.332 16.734-55.574 28.402zM394.132 514.57c-27.774 27.766-27.78 73 0 100.752 27.838 27.744 73 27.744 100.73 0 27.78-27.774 27.78-73 0-100.76s-72.95-27.764-100.73 0.006zM467.278 587.692c-12.492 12.558-32.966 12.55-45.546 0-12.492-12.52-12.492-32.966 0-45.51 12.564-12.558 32.988-12.558 45.538 0 12.564 12.542 12.564 32.966 0.008 45.51zM394.132 285.584c-27.774 27.846-27.774 73.008 0 100.76 27.838 27.764 73 27.764 100.73 0 13.46-13.394 20.922-31.334 20.922-50.366 0-19.038-7.406-36.918-20.924-50.358-27.774-27.788-72.95-27.788-100.73-0.036zM467.278 358.736c-12.492 12.55-32.966 12.55-45.546 0-12.492-12.492-12.492-32.966 0-45.51 12.564-12.492 32.988-12.492 45.538 0 6.148 6.040 9.486 14.132 9.486 22.766-0.050 8.562-3.396 16.668-9.478 22.744zM272.488 469.956h344.042v-39.028h-344.044v39.028z" />
<glyph unicode="&#xe60a;" d="M948.284 157.754h-872.558v161.296c-46.16 25.756-75.724 74.808-75.724 128.95s29.564 103.202 75.724 128.972v161.274h872.558v-161.266c46.21-25.742 75.716-74.808 75.716-128.972 0-54.136-29.564-103.192-75.716-128.956v-161.296zM147.758 229.794h728.486v138.27l24.39 8.316c30.706 10.462 51.326 39.254 51.326 71.62 0 32.376-20.626 61.174-51.326 71.642l-24.39 8.316v138.25h-728.486v-138.264l-24.384-8.33c-30.706-10.47-51.326-39.29-51.326-71.636 0-32.376 20.62-61.166 51.326-71.628l24.39-8.316-0.008-138.24zM621.79 417.554c-2.26 7.55-6.778 15.144-13.698 22.808-6.778 7.658-17.312 14.456-31.456 20.476-14.116 6.012-32.338 11.402-54.454 16.096v39.592c9.422-2.118 15.888-4.842 19.304-8.134 3.418-3.31 5.592-9.486 6.538-18.388h67.538c0 18.388-4.414 33.884-13.258 46.68-8.842 12.722-20.1 21.826-33.77 27.396-13.698 5.542-29.11 8.28-46.348 8.28v28.322h-18.38v-28.286c-11.524 0-22.73-1.654-33.574-4.972-10.846-3.266-20.924-8.098-30.41-14.456-9.428-6.366-16.972-15.028-22.666-26.038-5.65-10.988-8.446-23.366-8.446-37.338 0-18.626 5.18-32.526 15.556-41.694 10.368-9.198 26.79-17.672 49.152-25.452 4.276-1.654 10.13-3.462 17.672-5.484 7.58-2 11.82-3.128 12.738-3.36v-49.822c-19.572 1.374-29.356 12.84-29.356 34.304h-75.644c0.512-12.022 2.802-23.294 6.928-33.77 4.126-10.49 10.194-20.020 18.214-28.648 7.984-8.606 18.822-15.382 32.526-20.36 13.684-4.956 29.464-7.376 47.38-7.376v-35.048h18.38v35.070c17.91 0 33.77 2.428 47.562 7.254 13.784 4.826 24.572 11.294 32.36 19.422 7.716 8.134 13.554 16.798 17.312 26.038 3.786 9.182 5.678 18.814 5.678 28.994-0.022 11.040-1.15 20.36-3.38 27.894zM503.858 481.226c-16.712 3.258-25.108 9.616-25.108 19.118 0 10.836 8.338 16.3 25.106 16.3v-35.416zM522.246 363.822v44.88c10.368-3.208 17.86-6.502 22.448-9.832 4.602-3.308 6.928-7.774 6.928-13.438-0.028-12.78-9.812-19.97-29.376-21.61z" />
<glyph unicode="&#xe60b;" d="M877.818 630.052v150.112h-877.818v-514.254h146.188v-150.068h877.812v514.212h-146.182zM72.314 707.858h733.182v-369.654h-733.182v369.654zM951.658 188.126h-733.182v77.784h659.33v291.842h73.904c-0.052 0-0.052-369.626-0.052-369.626zM143.082 559.198h151.442v-72.344h-151.442v72.344zM583.294 559.198h151.442v-72.344h-151.442v72.344zM529.65 507.592c-1.798 6.040-5.432 12.16-10.982 18.264-5.484 6.134-13.866 11.588-25.144 16.408-11.33 4.79-25.866 9.11-43.602 12.882v31.696c7.528-1.654 12.688-3.866 15.426-6.474 2.738-2.644 4.478-7.544 5.238-14.724h54.086c0 14.724-3.562 27.196-10.614 37.374-7.080 10.194-16.104 17.5-27.050 21.95-10.946 4.428-23.322 6.646-37.094 6.646v22.65h-14.716v-22.65c-9.254 0-18.222-1.358-26.906-3.966-8.67-2.644-16.77-6.51-24.32-11.59-7.536-5.108-13.59-12.036-18.112-20.844-4.516-8.764-6.784-18.706-6.784-29.876 0-14.92 4.14-26.038 12.45-33.408 8.31-7.376 21.488-14.132 39.332-20.388 3.388-1.336 8.114-2.788 14.154-4.392 6.040-1.596 9.436-2.478 10.194-2.622v-39.932c-15.678 1.15-23.502 10.288-23.502 27.484h-60.596c0.382-9.63 2.19-18.654 5.498-27.014 3.31-8.38 8.164-16.096 14.594-22.982 6.474-6.864 15.086-12.304 26.038-16.27 10.946-3.952 23.588-5.946 37.938-5.946v-28.034h14.716v27.96c14.298 0 27.050 1.958 38.082 5.874 11.070 3.866 19.716 9.046 25.908 15.512 6.236 6.488 10.852 13.452 13.872 20.866 3.014 7.356 4.53 15.106 4.53 23.214 0.044 8.85-0.852 16.286-2.636 22.332zM435.214 558.562c-13.408 2.644-20.1 7.708-20.1 15.26 0 8.728 6.654 13.026 20.1 13.026v-28.284zM449.938 464.552v35.974c8.28-2.58 14.298-5.266 17.984-7.932 3.686-2.644 5.52-6.214 5.52-10.75-0.008-10.202-7.838-15.952-23.502-17.288z" />
<glyph unicode="&#xe60c;" d="M303.872 323.276l28.748 28.748c-14.738 14.754-25.7 29.774-32.858 45.106-7.19 15.31-10.54 29.81-10.050 43.5 0.454 13.678 3.332 26.494 8.584 38.488 5.266 12.050 12.6 23.192 22.13 33.502l62.164-62.258c-17.614-17.642-18.994-35.106-4.052-52.316l41.016 40.986c-0.592 1.034-3.166 5.376-7.688 13.214-4.588 7.854-7.918 14.212-10.064 19.118-12.014 24.802-18.516 45.27-19.436 61.296-1.026 16.104 6.17 31.798 21.524 47.114 11.452 11.43 23.994 19.348 37.67 23.676 13.698 4.364 27 5.266 39.998 2.782 12.976-2.558 25.286-6.884 36.926-13.098 11.59-6.17 22.158-14.002 31.716-23.56l23.25 23.272 15.202-15.108-23.316-23.264c14.116-14.168 24.566-29.138 31.254-44.952 6.682-15.808 8.404-32.62 5.216-50.38-3.164-17.722-12.362-34.152-27.49-49.222l-55.544 55.538c6.582 8.142 9.798 14.984 9.746 20.498-0.094 5.57-3.164 13.098-9.182 22.556l-32.592-32.576c14.356-22.13 24.876-41.42 31.572-58.016 6.676-16.552 9.682-30.814 9.002-42.756-0.708-11.892-3.216-21.906-7.558-29.932-4.364-8.056-11.126-16.698-20.23-25.742-8.338-8.28-17.854-14.754-28.48-19.182-10.686-4.422-22.556-6.792-35.64-7.080-13.098-0.296-27.302 3.266-42.62 10.62-15.296 7.398-30.286 18.424-45.004 33.148l-28.806-28.748-15.108 15.034zM430.668 419.846l-36.934-36.876c17.454-14.746 31.456-16.892 41.89-6.386 4.666 4.638 6.474 10.13 5.376 16.712-1.070 6.438-4.5 15.302-10.332 26.552zM475.19 494.6l29.050 29.052c-13.706 13.77-25.106 16.19-34.022 7.34-7.738-7.802-6.098-19.896 4.972-36.392zM939.894 757.254c-7.26 7.274-14.846 13.88-22.426 20.308l-5.13-88.658c44.036-53.846 56.86-110.302 37.014-130.178-5.874-5.882-15.172-8.88-27.346-8.88-36.044 0-84.878 25.54-124.398 65.060-22.47 22.462-39.144 46.342-49.996 68.608 17.006 21.53 15.684 52.886-4.198 72.784-21.51 21.43-56.166 21.416-77.596 0-21.394-21.406-21.408-56.138 0-77.58 5.020-4.972 10.78-8.758 16.876-11.438 13.952-33.568 36.876-67.914 68.096-99.182 52.88-52.886 116.942-84.458 171.216-84.458 30.034 0 55.66 9.784 74.156 28.25 52.988 53.016 28.264 160.804-56.268 245.366zM789.776 494.312c-3.322-6.588-7.376-12.71-11.618-17.008l-381.75-381.742-308.070 308.112 381.764 381.758c9.702 9.696 28.64 18.466 42.296 19.564l262.394 21.226c22.888-0.448 41.838-19.29 42.41-42.070l-9.784-131.11c4.35-5.028 8.828-9.948 13.474-14.716 15.202-15.114 30.712-26.934 45.424-35.72l13.134 176.908 0.188 3.078-0.086 3.166c-1.394 56.7-46.97 101.9-103.706 103.026l-3.15 0.066-3.114-0.246-262.394-21.248c-28.452-2.318-61.224-17.456-81.432-37.65l-425.756-426.068 396.408-396.402 425.93 425.924c8.924 8.9 16.762 20.324 23.034 32.758-18.676 7.166-37.338 16.718-55.596 28.394z" />
<glyph unicode="&#xe60d;" d="M250.634 506.742l-63.314 44.358 216.652 309.234 63.314-44.358-216.652-309.234zM772.804 506.964l-212.838 309.288 63.692 43.83 212.838-309.288-63.692-43.83zM823.892 35.668h-623.928l-9.796 23.822c0 0-103.114 248.19-124.072 299.076-19.094 46.058-30.064 62.734-66.094 83.904l39.29 66.65c54.332-32.022 74.986-64.612 98.288-121.212 16.98-41.096 87.768-211.64 114.080-274.944h520.77c26.32 63.304 97.116 233.776 114.088 274.964 23.3 56.578 43.956 89.242 98.288 121.192l39.288-66.65c-36.058-21.226-47.028-37.844-66.028-83.976-20.974-50.986-124.182-299.076-124.182-299.076l-9.992-23.748z" />
<glyph unicode="&#xe60e;" d="M948.29 157.754h-872.566v161.296c-46.16 25.756-75.724 74.808-75.724 128.95s29.564 103.202 75.724 128.972v161.274h872.558v-161.266c46.21-25.742 75.71-74.808 75.71-128.972 0-54.136-29.564-103.192-75.71-128.956l0.006-161.296zM147.758 229.794h728.494v138.27l24.39 8.316c30.698 10.462 51.326 39.254 51.326 71.62 0 32.376-20.626 61.174-51.326 71.642l-24.384 8.316v138.25h-728.5v-138.264l-24.384-8.33c-30.706-10.47-51.326-39.29-51.326-71.636 0-32.376 20.62-61.166 51.326-71.628l24.39-8.316-0.008-138.24zM621.262 573.144l-28.328-60.336c-15.96 10.39-31.528 15.562-46.716 15.562-23.12 0.006-39.86-12.196-49.894-36.688h90.616l-14.812-35.524h-82.218c-0.238-0.75-0.454-2.14-0.454-3.996v-9.58c0-1.864 0.166-3.164 0.454-4.004l75.414 0.006-14.76-35.518h-53.486c9.884-23.936 27.47-35.9 52.784-35.9 16.428 0 34.99 6.626 55.486 19.956v-74.2c-18.142-8.25-40.040-12.384-65.862-12.376-31.934-0.006-59.072 9.19-81.432 27.556-21.826 18.61-36.948 43.654-45.496 75.052h-31.162l14.774 35.496h11.17c-0.266 0.802-0.396 2.016-0.396 3.598v9.92c0 1.858 0.138 3.202 0.396 3.996h-26.738l14.798 35.524h17.144c8.236 31.666 23.632 56.816 46.232 75.442 22.88 18.894 50.3 28.322 82.234 28.322 25.028 0.036 51.774-7.414 80.254-22.312z" />
<glyph unicode="&#xe60f;" d="M877.87 630.076v150.118h-877.87v-514.276h146.174v-150.068h877.826v514.26l-146.13-0.036zM72.32 707.874h733.198v-369.648h-733.198v369.648zM951.716 188.114h-733.226v77.806h659.336v291.844h73.904l-0.014-369.648zM143.096 559.212h151.456v-72.314h-151.456v72.314zM583.324 559.212h151.448v-72.314h-151.448v72.314zM552.518 623.652l-22.774-48.32c-12.818 8.28-25.31 12.492-37.468 12.492-18.61 0-31.992-9.784-40.142-29.428h72.826l-11.856-28.488h-65.986c-0.216-0.636-0.39-1.69-0.39-3.192v-7.688c0-1.466 0.152-2.558 0.39-3.172l60.51 0.008-11.892-28.488h-42.88c7.904-19.212 21.978-28.79 42.28-28.79 13.242 0 28.090 5.318 44.542 16.024v-59.578c-14.514-6.618-32.152-9.97-52.866-9.97-25.628 0-47.404 7.376-65.342 22.13-17.52 14.918-29.652 35.034-36.514 60.22h-24.976l11.892 28.394h8.902c-0.152 0.608-0.318 1.596-0.318 2.86v8.070c0 1.48 0.152 2.558 0.318 3.192h-21.464l11.856 28.502h13.772c6.588 25.418 19 45.596 37.122 60.544 18.366 15.166 40.466 22.73 66.080 22.73 20.078-0.122 41.536-6.106 64.38-18.054z" />
<glyph unicode="&#xe610;" d="M644.266 469.848l-72.776-26.262c-4.668 21.654-13.128 38.712-25.582 51.16-19.082 19.096-42.75 22.708-71.194 10.836l74.444-74.446-41.334-17.044-67.552 67.582c-0.88-0.454-2.088-1.43-3.612-2.948l-3.606-3.612-4.254-4.248c-1.532-1.538-2.558-2.738-2.954-3.62l61.982-61.982-41.326-17.080-43.95 43.956c-11.588-27.774-7-52.042 13.772-72.826 13.554-13.548 34.216-23.286 61.998-29.182l-60.964-60.964c-21.654 8.1-43.146 22.73-64.294 43.942-26.234 26.234-40.994 56.094-44.274 89.552-2.63 33.264 5.454 66.246 24.284 99.052l-25.592 25.582 41.32 17.044 9.182-9.182c0.454 0.846 1.358 1.958 2.638 3.25l4.254 4.306 3.93 3.944c1.532 1.524 2.73 2.52 3.606 2.896l-21.992 21.964 41.384 17.058 14.038-14.102c32.786 19.254 66.138 27.244 100.094 23.942 34.326-3.274 64.576-18.034 90.782-44.274 20.554-20.548 36.4-48.652 47.554-84.3zM939.894 757.254c-7.268 7.268-14.832 13.894-22.426 20.324l-5.116-88.656c44.036-53.87 56.866-110.318 37.006-130.186-5.874-5.874-15.1-8.88-27.368-8.88-36.024 0-84.85 25.548-124.376 65.082-22.462 22.456-39.124 46.326-50.082 68.592 17.072 21.524 15.772 52.894-4.126 72.798-21.494 21.422-56.158 21.408-77.568 0-21.422-21.414-21.436-56.144 0-77.558 4.972-4.972 10.736-8.8 16.856-11.452 13.938-33.568 36.876-67.906 68.102-99.182 52.894-52.894 116.936-84.466 171.194-84.466 30.034 0 55.682 9.784 74.178 28.242 52.972 53.010 28.278 160.79-56.274 245.344zM789.754 494.334c-3.308-6.61-7.376-12.702-11.59-16.978l-381.772-381.814-308.070 308.114 381.772 381.764c9.696 9.688 28.632 18.452 42.296 19.558l262.416 21.284c22.86-0.454 41.832-19.356 42.396-42.128l-9.784-131.11c4.356-5.028 8.814-9.956 13.496-14.716 15.202-15.13 30.712-26.934 45.394-35.728l13.15 176.916 0.152 3.086-0.072 3.158c-1.386 56.714-46.956 101.914-103.684 103.034l-3.164 0.058-265.414-21.552c-28.488-2.318-61.26-17.456-81.432-37.65l-425.844-425.98 396.402-396.408 425.938 425.944c8.938 8.88 16.762 20.324 23.026 32.75-18.662 7.166-37.346 16.712-55.61 28.402z" />
<glyph unicode="&#xe611;" d="M128.010 960v-1024h560.956l207.066 207.072v816.928h-768.022zM200.288 887.716h623.356v-713.134h-165.53v-166.324h-457.828v879.458zM273.512 656.93h479.402v-72.286h-479.402v72.284zM273.512 510.214h479.402v-72.278h-479.402v72.278zM273.512 363.504h479.402v-72.284h-479.402v72.284z" />
<glyph unicode="&#xe612;" d="M700.976 345.102l-25.178-25.134-95.384 95.332c52.85 57.952 85.154 134.86 85.154 219.306 0 179.394-146.014 325.394-325.482 325.394-179.46 0-325.452-146.002-325.452-325.46s145.986-325.504 325.452-325.504c69.446 0 133.826 21.934 186.728 59.158l98.65-98.626-25.164-25.134 308.416-308.416 100.702 100.708-308.438 308.38zM85.846 634.548c0 140.134 114.052 254.23 254.23 254.23 140.214 0 254.274-114.060 254.274-254.23 0-140.206-114.060-254.252-254.274-254.252-140.178-0.006-254.23 114.052-254.23 254.252z" />
<glyph unicode="&#xe613;" d="M262.314 362.226v165.71h52.228l48.32-88.658h0.454v88.656h48.32v-165.724h-49.67l-50.862 90.528h-0.506v-90.52l-48.284 0.006zM432.454 362.226v165.71h137.122v-42.432h-86.12v-20.664h78.23v-39.456h-78.202v-20.664h88.678v-42.476l-139.708-0.022zM801.972 527.936l-46.472-165.724h-49.642l-17.874 100.962h-0.49l-17.404-100.962h-49.88l-45.004 165.726h50.126l20.26-102.356h0.456l20 102.356h45.004l19.506-103.712h0.456l20.664 103.712h50.3zM512.022 866.778l77.646-78.548 104.076 37.042 22.312-65.016 13.562-39.456 41.486-4.364 68.34-7.368-12.99-109.644 93.772-58.218-36.876-58.024-22.426-35.178 59.302-93.158-93.772-58.254 4.906-41.478 8.086-68.188-109.826-11.754-13.562-39.434-22.312-65.016-104.090 37.078-77.616-78.556-77.676 78.556-104.11-37.078-35.864 104.45-41.406 4.378-68.356 7.376 8.020 68.188 4.972 41.478-93.85 58.254 59.308 93.158-22.404 35.178-36.906 58.024 93.874 58.218-4.972 41.406-8.020 68.24 109.76 11.732 13.548 39.456 22.39 65.018 104.046-37.042 29.356 29.664 48.278 48.884zM512.022 960l-94.928-96.048-127.202 45.35-43.812-127.728-134.324-14.334 15.894-134.1-114.74-71.188 72.472-113.944-72.472-113.916 114.76-71.194-15.924-134.116 134.276-14.392 43.856-127.7 127.194 45.308 94.928-96.070 94.92 96.070 127.216-45.308 43.848 127.7 134.274 14.392-15.88 134.116 114.71 71.194-72.486 113.93 72.486 113.944-114.71 71.188 15.88 134.116-134.26 14.298-43.848 127.752-127.216-45.308-94.914 95.99z" />
<glyph unicode="&#xe614;" d="M0 404.384l112.332-450.488 911.696 227.332-112.346 450.48-911.682-227.324zM160.64 34.338l-80.246 321.748 783 195.224 80.226-321.76-782.976-195.21zM261.832 166.972c-16.986 10.716-28.248 27.246-33.798 49.47-5.57 22.158-3.33 41.998 6.626 59.454 9.998 17.426 25.888 28.878 47.714 34.34 21.826 5.384 41.212 2.738 58.254-7.94 16.986-10.722 28.184-27.188 33.784-49.404 5.534-22.274 3.322-42.086-6.64-59.54-9.986-17.426-25.85-28.856-47.714-34.312-21.842-5.44-41.234-2.796-58.226 7.932zM270.45 247.804c-0.556-6.026 0.152-12.824 2.066-20.332 1.878-7.536 4.37-13.836 7.68-18.828 3.274-5.050 6.712-8.582 10.454-10.482 3.692-1.98 7.19-3.164 10.556-3.592 3.316-0.456 6.618-0.302 9.79 0.52 3.23 0.78 6.2 2.196 8.894 4.176 2.738 1.958 5.266 4.668 7.638 8.15 2.356 3.462 3.814 8.172 4.364 14.174 0.526 5.996-0.188 12.752-2.046 20.288-1.916 7.536-4.478 13.866-7.746 18.914-3.202 5.050-6.718 8.562-10.39 10.462-3.764 1.958-7.226 3.144-10.592 3.612-3.316 0.448-6.626 0.282-9.848-0.572-3.238-0.794-6.214-2.174-8.916-4.154-2.73-1.958-5.266-4.668-7.63-8.142-2.356-3.482-3.778-8.25-4.276-14.198zM406.084 184.14l-35.98 144.332 74.366 18.554c9.306 2.26 17.912 2.746 25.93 1.358 7.976-1.358 14.602-4.068 19.774-8.192 5.158-4.068 9.378-8.576 12.558-13.582 3.258-5 5.57-10.222 6.942-15.808 4.168-16.842 2.262-30.858-5.81-42.128-8.114-11.22-20.728-19.016-37.988-23.316l-26.262-6.568 10.888-43.616-44.418-11.032zM423.784 302.52l7.298-29.26 17.202 4.226c3.634 0.946 6.474 1.798 8.584 2.578 2.082 0.802 4.334 1.98 6.74 3.468 2.378 1.51 4.038 3.52 4.696 6.12 0.722 2.558 0.614 5.57-0.21 9.046-1.056 4.182-2.954 7.072-5.708 8.67-2.738 1.634-5.476 2.26-8.134 2.052-2.674-0.238-6.17-0.924-10.664-2.010l-19.802-4.89zM543.292 218.378l-35.966 144.274 119.384 29.78 9.212-36.89-74.98-18.798 4.486-17.91 68.116 16.986 8.524-34.34-68.066-17.006 4.486-17.99 77.206 19.246 9.232-36.984-121.638-30.366zM680.716 252.624l-35.972 144.296 45.51 11.38 61.26-66.736 0.432 0.152-19.276 77.22 42.014 10.482 35.972-144.326-43.198-10.788-63.97 67.778-0.384-0.124 19.63-78.802-42.020-10.534zM420.084 929.020c-14.76 8.858-31.046 13.084-47.114 13.084-31.046 0-61.39-15.808-78.548-44.404-26.038-43.322-12.022-99.552 31.312-125.678 14.752-8.872 31.016-13.070 47.098-13.070 31.038 0 61.39 15.844 78.564 44.456 26.016 43.328 12 99.558-31.312 125.612zM307.802 742.126c-3.244 1.936-6.33 4.068-9.306 6.25l-98.36-258.102 78.426 19.558 81.902 214.912c-18.524 1.822-36.558 7.694-52.662 17.382zM486.576 795.278c-1.654-3.41-3.416-6.632-5.288-9.862-9.716-16.242-22.982-29.818-38.38-40.040l173.246-151.354 78.426 19.558-208.004 181.698z" />
<glyph unicode="&#xe615;" d="M511.992 960l-400.094-218.646v-464.526l400.094-218.668 400.080 218.662v464.532l-400.080 218.646zM810.056 721.736l-298.062-162.87-298.062 162.87 298.056 162.894 298.070-162.894zM178.036 665.976l300.88-164.404v-349.96l-300.88 164.432v349.932zM545.062 151.62v349.944l300.88 164.402v-349.938l-300.88-164.41zM238.732 85.020l-126.84 69.438v67.95l126.84-69.438zM785.274 85.020l126.832 69.438v67.95l-126.832-69.438zM638.572 73.39l-126.702-69.38-126.718 69.38v-67.942l126.84-69.322 126.58 69.322z" />
<glyph unicode="&#xe616;" d="M410.396 481.502l-30.8 65.384c81.562 38.386 191.308 44.102 279.38 14.602l-22.938-68.5c-71.39 23.856-159.974 19.376-225.64-11.488zM535.706 895.33c35.178 0 63.788-28.596 63.788-63.79 0-35.164-28.618-63.76-63.788-63.76-35.156 0-63.766 28.596-63.766 63.76 0 35.194 28.61 63.79 63.766 63.79zM535.706 960c-70.92 0-128.438-57.51-128.438-128.46 0-70.92 57.51-128.43 128.438-128.43 70.898 0 128.394 57.504 128.394 128.43 0.036 70.95-57.46 128.46-128.394 128.46v0zM931.78 503.978l-26.038 2.99c-8.49 13.902-18.214 27.288-28.856 40.106l13.388 63.456-62.092 151.702-163.932-45.206-22.736-33.308c-34.672 7.608-70.292 11.444-106.27 11.444-213.192 0-389.286-133.776-412.578-305.268-1.596 0.108-2.862 0.188-3.54 0.224-22.13 1.604-43.508 17.874-41.696 50.61 1.656 27.982 23.734 39.52 43.92 40.944l-5.224 72.060c-61.896-4.486-107.456-49.224-110.858-108.924-3.866-67.502 42.792-122.006 108.554-126.746 1.358-0.136 4.328-0.302 8.084-0.578 9.502-80.832 52.966-156.044 123.308-212.716l-1.8-4.14c-25.77-59.614 1.656-129.038 61.238-154.886 14.904-6.474 30.62-9.74 46.81-9.74 46.984 0 89.416 27.846 108.106 70.956l2.356 5.448c48.226-7.102 98.46-7.102 146.716 0l2.364-5.448c18.676-43.11 61.094-70.956 108.076-70.956 16.104 0 31.898 3.266 46.802 9.74 59.562 25.8 87.024 95.282 61.26 154.886l-1.77 4.162c32.542 26.312 59.902 57.048 80.428 90.462l26.126 2.998c50.64 2.052 87.14 65.668 87.14 152.828-0.13 87.232-36.63 150.848-87.284 152.894zM925.972 270.39l-65.48-7.514-8.916-16.754c-20.186-37.974-51.774-72.4-91.316-99.798l-24.398-16.842 24.846-57.554c9.97-23.034-0.636-49.852-23.634-59.844-5.758-2.464-11.892-3.764-18.034-3.764-18.214 0-34.572 10.758-41.782 27.484l-25.404 58.702-28.85-6.106c-56.976-11.892-118.538-11.892-175.456 0l-28.856 6.126-25.41-58.724c-7.238-16.712-23.632-27.484-41.81-27.484-6.192 0-12.238 1.358-18.034 3.77-23.034 9.978-33.646 36.812-23.676 59.828l24.948 57.554-24.414 16.864c-75.046 51.838-118.084 126.494-118.084 204.856 0 149.852 153.898 271.772 343.030 271.772 38.364 0 76.1-5.086 112.442-15.070l24.838-6.864 36.522 53.442 76.57 21.118 29.39-71.83-16.408-77.818 12.794-13.728c16.134-17.31 29.68-36.218 40.198-55.992l8.894-16.712 65.48-7.514c6.336-5.888 20.736-32.7 20.736-80.716-0.014-48.176-14.406-74.98-20.736-80.89z" />
<glyph unicode="&#xe617;" d="M375.522 831.118l58.86-41.218-201.206-287.322-58.86 41.218 201.206 287.32zM383.91 230.314c0-33.546-27.194-60.74-60.74-60.74s-60.74 27.194-60.74 60.74c0 33.546 27.194 60.74 60.74 60.74s60.74-27.194 60.74-60.74zM536.594 230.314c0-33.546-27.194-60.74-60.74-60.74s-60.74 27.194-60.74 60.74c0 33.546 27.194 60.74 60.74 60.74s60.74-27.194 60.74-60.74zM303.084 378.504c0-33.546-27.194-60.74-60.74-60.74s-60.74 27.194-60.74 60.74c0 33.546 27.194 60.74 60.74 60.74s60.74-27.194 60.74-60.74zM458.766 378.504c0-33.554-27.202-60.754-60.754-60.754s-60.754 27.202-60.754 60.754c0 33.554 27.202 60.754 60.754 60.754s60.754-27.202 60.754-60.754zM801.25 708.284c-123.018 0-222.75-99.798-222.75-222.794 0-123.062 99.726-222.758 222.75-222.758 123.034 0 222.75 99.726 222.75 222.758s-99.718 222.794-222.75 222.794zM901.9 428.644l-44.404-44.412-56.144 56.144-56.166-56.224-44.412 44.448 56.166 56.144-56.968 56.932 44.448 44.448 56.932-56.932 56.866 56.874 44.448-44.448-56.874-56.874 56.11-56.1zM801.25 226.832c-15.202 0-29.954 1.374-44.36 3.88-15.52-37.482-30.106-72.4-39.072-94.076h-483.924c-24.522 58.846-90.26 217.268-106.082 255.538-21.602 52.548-40.864 82.884-91.366 112.652l-36.442-61.94c33.488-19.674 43.71-35.184 61.368-78.028 19.478-47.418 115.308-277.892 115.308-277.892l9.182-22.136h579.922l9.198 22.136c0 0 29.356 70.846 58.876 141.97-10.606-1.322-21.516-2.102-32.606-2.102zM665.862 705.812l-86.128 125.15-59.178-40.704 89.806-130.424c16.192 17.78 34.89 33.272 55.502 45.978zM546.866 438.832c-30.316-3.462-53.912-29.052-53.912-60.356 0-33.486 27.21-60.74 60.748-60.74 14.942 0 28.72 5.542 39.288 14.558-22.838 30.972-38.928 67.206-46.124 106.538zM631.096 290.916c-0.86 0.036-1.682 0.196-2.558 0.196-33.486 0-60.726-27.246-60.726-60.798 0-33.486 27.246-60.74 60.726-60.74 33.568 0 60.804 27.202 60.804 60.74 0 8.822-1.922 17.182-5.332 24.738-19.168 9.79-36.898 21.848-52.914 35.864z" />
<glyph unicode="&#xe618;" d="M210.404 417.938h51.072c0-3.874 0.608-7.486 1.85-10.91 2.926-8.034 11.054-12.066 24.378-12.066 5.412 0 10.282 1.17 14.616 3.462 4.32 2.312 6.474 6.206 6.474 11.602 0 4.004-2.182 7.072-6.474 9.262-4.364 2.116-14.118 5.432-29.304 9.76-17.484 4.972-29.354 9.24-35.676 12.982-13.67 7.926-20.426 19.564-20.426 35.070 0 17.912 6.466 31.566 19.378 40.792 12.968 9.234 28.792 13.996 47.46 13.996 19.802 0 36.132-4.364 49.036-13.062 12.796-8.606 19.564-22.368 20.13-41.074h-48.312c0.766 5.714-1.242 10.108-6.034 13.222-4.024 2.832-9.046 4.168-15.078 4.168-4.702 0-8.866-0.81-12.658-2.456-3.764-1.654-5.678-4.516-5.678-8.684 0.152-2.204 1.056-4.14 2.666-5.924 1.626-1.776 4.364-3.404 8.25-4.878 3.866-1.48 7.19-2.594 10.050-3.368 2.774-0.774 7.342-1.958 13.678-3.482 6.344-1.538 10.836-2.63 13.474-3.244 6.776-1.958 12.608-4.068 17.406-6.156 4.798-2.082 9.638-4.972 14.514-8.584s8.496-8.252 10.988-13.742c2.508-5.57 3.764-12 3.764-19.27 0-10.39-2.262-19.422-6.626-27.044-4.406-7.68-10.39-13.582-17.912-17.76-7.442-4.168-15.556-7.274-24.232-9.278-8.67-1.994-17.954-3.028-27.846-3.028-4.638 0-9.58 0.354-14.854 1.054-5.266 0.75-11.488 2.284-18.684 4.76-7.196 2.442-13.568 5.758-19.146 9.87-5.57 4.090-10.338 9.934-14.29 17.52-3.974 7.608-5.954 16.422-5.954 26.48zM354.772 362.232l61.036 165.718h49.918l60.356-165.726h-52.856l-7 23.682h-52.692l-7.406-23.676h-51.356zM424.636 421.42h31.326l-14.846 51.028h-0.49l-15.988-51.028zM531.63 362.232v165.718h51.066v-123.256h73.326v-42.476l-124.39 0.014zM672.032 362.232v165.718h137.158v-42.446h-86.1v-20.628h78.21v-39.47h-78.21v-20.656h88.658v-42.476l-139.716-0.044zM512.022 866.778l77.64-78.542 104.082 37.13 22.326-65.002 13.538-39.462 109.832-11.734-8.086-68.298-4.914-41.406 93.794-58.218-36.876-58.046-22.426-35.17 22.426-35.2 36.876-57.952-93.85-58.27 4.972-41.464 8.086-68.202-109.832-11.754-13.538-39.442-22.326-64.988-104.082 37.136-77.64-78.572-77.676 78.572-104.104-37.136-35.856 104.428-41.4 4.378-68.362 7.37 8.020 68.202 4.972 41.464-93.844 58.27 59.302 93.152-22.39 35.17-36.906 58.044 93.844 58.218-4.972 41.406-8.076 68.298 109.818 11.734 35.858 104.466 104.104-37.13 29.356 29.658 48.314 48.89zM512.022 960l-94.928-96.048-127.21 45.35-43.806-127.716-134.312-14.304 15.88-134.116-114.716-71.186 72.45-113.944-72.444-113.914 114.754-71.194-15.946-134.116 134.268-14.392 43.848-127.706 127.202 45.308 94.928-96.076 94.928 96.076 127.194-45.308 43.848 127.706 134.274 14.392-15.932 134.116 114.746 71.194-72.466 113.93 72.466 113.944-114.746 71.188 15.932 134.116-134.254 14.298-43.848 127.758-127.194-45.372-94.922 96.020z" />
<glyph unicode="&#xe619;" d="M317.368 295.266l23.668 23.634c1.792-1.778 3.772-3.128 5.976-4.162 5.044-2.406 10.728-0.456 16.9 5.672 2.45 2.558 4.226 5.332 5.166 8.388 0.932 3.086 0.152 5.88-2.428 8.404-1.806 1.864-4.306 2.284-7.29 1.3-3.072-1.026-9.046-4.052-18.092-9.052-10.39-5.808-17.932-9.326-22.598-10.548-9.986-2.578-18.546-0.398-25.742 6.784-8.28 8.28-11.588 17.614-9.95 27.982 1.676 10.238 6.864 19.768 15.548 28.452 9.182 9.182 18.77 14.732 28.748 16.712 9.92 1.936 19.45-1.328 28.43-9.71l-22.426-22.426c-2.262 3.034-5.266 4.134-8.88 3.36-3.166-0.462-6.17-2.26-8.938-4.972-2.102-2.204-3.722-4.486-4.666-7.072-1.056-2.486-0.5-4.668 1.372-6.632 1.070-0.91 2.4-1.446 3.988-1.488 1.646-0.078 3.598 0.47 6.156 1.634 2.486 1.054 4.53 2.11 6.17 3.086 1.654 0.904 4.328 2.486 7.976 4.668 3.65 2.26 6.17 3.764 7.68 4.668 4.068 2.24 7.68 3.996 10.866 5.268 3.192 1.272 6.776 2.146 10.706 2.788 4.016 0.52 7.788 0.152 11.524-1.358 3.764-1.374 7.312-3.764 10.686-7.202 4.82-4.798 7.932-10.014 9.478-15.57 1.502-5.62 1.488-11.162-0.050-16.524-1.546-5.39-3.866-10.634-6.964-15.534-3.078-4.986-6.92-9.726-11.496-14.356-2.146-2.11-4.666-4.292-7.378-6.366-2.752-2.11-6.402-4.284-10.852-6.452-4.478-2.26-8.96-3.692-13.402-4.364-4.464-0.722-9.442-0.152-14.738 1.48-5.484 1.682-10.484 4.856-15.152 9.514zM410.152 336.382l-48.616 105.216 23.142 23.128 104.914-48.876-24.544-24.536-14.212 7.738-24.436-24.5 7.528-14.414-23.776-23.754zM415.1 396.248l14.528 14.538-30.554 16.792-0.158-0.21 16.184-31.118zM492.176 418.428l-76.858 76.888 23.682 23.676 57.092-57.17 34.014 34.014 19.716-19.666-57.648-57.74zM557.308 483.548l-76.872 76.866 63.672 63.674 19.71-19.716-40.012-39.904 9.572-9.544 36.276 36.276 18.256-18.286-36.27-36.29 9.494-9.494 41.116 41.096 19.716-19.674-64.664-65.002zM939.918 757.306c-7.304 7.332-14.846 13.828-22.426 20.308l-5.122-88.658c44.044-53.928 56.852-110.324 37.014-130.192-5.88-5.938-15.106-8.916-27.36-8.916-36.082 0-84.856 25.548-124.384 65.082-22.52 22.454-39.124 46.332-50.126 68.6 17.066 21.524 15.794 52.894-4.19 72.798-21.422 21.422-56.144 21.408-77.516 0-21.414-21.472-21.524-56.21 0-77.588 4.972-4.972 10.686-8.786 16.864-11.444 13.944-33.568 36.854-67.892 68.096-99.176 52.908-52.952 116.922-84.466 171.202-84.466 29.954 0 55.674 9.784 74.164 28.242 53.030 53.066 28.344 160.842-56.21 245.408zM789.776 494.378c-3.308-6.618-7.29-12.71-11.59-16.986l-381.764-381.806-308.084 308.098 381.778 381.778c9.702 9.63 28.632 18.386 42.28 19.558l262.43 21.278c22.86-0.484 41.832-19.29 42.396-42.128l-9.754-131.11c4.292-5.028 8.742-9.962 13.408-14.746 15.086-15.078 30.728-26.942 45.4-35.678l13.12 176.858 0.152 3.092-0.078 3.15c-1.446 56.716-46.948 101.908-103.706 103.034l-3.144 0.072-3.034-0.158-262.402-21.306c-28.452-2.312-61.224-17.454-81.432-37.656l-425.756-426.038 396.444-396.452 425.988 425.988c8.938 8.93 16.754 20.368 23.034 32.75-18.74 7.182-37.432 16.718-55.69 28.408z" />
<glyph unicode="&#xe61a;" d="M730.206 500.020v222.224c0 139.984-89.718 237.758-218.198 237.758-128.474 0-218.192-97.76-218.192-237.758v-222.224h82.466v222.224c0 77.292 41.998 155.286 135.726 155.286 93.772 0 135.726-77.978 135.726-155.286v-222.224h82.472zM647.734 722.242v-81.822h82.472v81.822c0 0.218-0.022 0.426-0.036 0.658h-82.458c0-0.194 0.022-0.44 0.022-0.658zM376.28 640.422v81.822c0 0.218 0.022 0.52 0.022 0.658h-82.458c-0.014-0.21-0.028-0.426-0.028-0.658v-81.822h82.466zM606.502 722.242c0 0.218-0.014 0.608-0.014 0.658h-188.96c0-0.152-0.008-0.456-0.008-0.658v-81.822h188.982v81.822zM904.276 722.886h-132.852c0-0.216 0.014-0.426 0.014-0.65v-81.814h56.144l45.576-621.962h-722.266l45.588 621.962h56.146v81.822c0 0.216 0.008 0.52 0.008 0.658h-132.866l-57.598-786.9h899.652l-57.546 786.886z" />
<glyph unicode="&#xe61b;" d="M250.91 506.638l-63.344 44.312 216.38 309.318 63.344-44.312-216.38-309.32zM623.646 860.044l212.89-309.254-63.73-43.848-212.802 309.298zM347.69 279.11c36.118 0 65.378-29.268 65.378-65.336 0-36.058-29.262-65.342-65.378-65.342-36.074 0-65.328 29.284-65.328 65.342 0 36.068 29.254 65.336 65.328 65.336zM676.216 279.11c36.154 0 65.414-29.268 65.414-65.336 0-36.058-29.26-65.342-65.414-65.342-36.068 0-65.328 29.284-65.328 65.342 0 36.068 29.26 65.336 65.328 65.336zM511.956 279.11c36.11 0 65.37-29.268 65.37-65.336 0-36.058-29.26-65.342-65.37-65.342-36.074 0-65.328 29.284-65.328 65.342 0 36.068 29.254 65.336 65.328 65.336zM260.726 438.558c36.118 0 65.37-29.356 65.37-65.342 0-36.058-29.262-65.328-65.37-65.328s-65.328 29.268-65.328 65.328c0 36.074 29.218 65.342 65.328 65.342zM661.058 373.222c0-36.086-29.254-65.342-65.342-65.342s-65.342 29.254-65.342 65.342c0 36.086 29.254 65.342 65.342 65.342s65.342-29.254 65.342-65.342zM763.224 438.558c35.986 0 65.336-29.356 65.336-65.342 0-36.058-29.348-65.328-65.336-65.328-36.068 0-65.328 29.268-65.328 65.328 0 36.074 29.26 65.342 65.328 65.342zM428.242 438.564c36.068 0 65.334-29.356 65.334-65.35 0-36.068-29.268-65.336-65.334-65.336-36.11 0-65.384 29.268-65.384 65.336 0 36.082 29.274 65.35 65.384 65.35zM823.928 35.66h-623.908l-9.862 23.936c0 0-103.128 248.104-124.052 298.96-19.152 46.124-29.998 62.77-66.078 83.946l39.29 66.664c54.332-32.042 74.98-64.656 98.288-121.168 17.008-41.318 87.754-211.654 114.088-275.002h520.77c26.35 63.37 97.096 233.754 114.052 275.002 23.328 56.476 43.992 89.184 98.316 121.168l39.246-66.678c-36.038-21.226-46.998-37.83-66.014-83.946-20.932-50.908-124.182-298.966-124.182-298.966l-9.956-23.914z" />
<glyph unicode="&#xe61c;" d="M792.966 381.904h-214.87v-214.87h-132.226v214.87h-214.868v132.226h214.868v214.87h132.226v-214.87h214.87v-132.226zM1024 448.016c0-282.768-229.216-511.984-511.982-511.984-282.768-0.034-512.018 229.216-512.018 511.984s229.248 511.984 511.984 511.984c282.8 0 512.018-229.25 512.018-511.984zM991.308 448.016c0 258.702-206.142 469.67-462.796 478.498-5.554 0.164-10.976 0.826-16.528 0.826-5.586 0-11.008-0.662-16.528-0.826-256.62-8.826-462.796-219.794-462.796-478.498s206.176-469.67 462.796-478.498c5.52-0.198 10.942-0.826 16.528-0.826 5.554 0 10.976 0.66 16.528 0.826 256.654 8.826 462.796 219.794 462.796 478.498z" />
<glyph unicode="&#xe61d;" d="M990.592 474.464c0.096 3.808 0.288 7.616 0.288 11.456 0 265.984-216.448 466.208-482.496 466.208-266.016 0-482.464-200.224-482.464-466.208 0-6.656 0.192-13.376 0.48-20.032-16.416-21.952-26.4-50.432-26.4-81.632 0-69.056 48.576-125.088 108.672-125.76 0.16-0.032 14.816-0.032 31.104-0.032 78.752-180.864 252.32-314.624 368.64-314.624 104.256 0 287.648 126.848 369.152 314.592 18.688 0.032 37.6 0.032 37.76 0.064 60.096 0.672 108.672 56.704 108.672 125.76 0 35.424-12.832 67.36-33.408 90.208zM841.056 300.512c-67.744-176.16-238.656-307.936-332.64-307.936-76.768 0-199.712 81.792-280.512 204.384 68.32-31.168 142.56-50.208 219.008-56.192 5.568-30.944 32.512-54.496 65.12-54.496 36.608 0 66.272 29.728 66.272 66.304 0 36.64-29.664 66.304-66.272 66.304-29.408 0-54.016-19.264-62.72-45.76-89.216 7.008-175.328 32.48-251.552 75.232-5.28 10.304-10.208 20.768-14.784 31.488v175.424c97.312 12.288 134.848 59.872 173.44 210.24 120.704-81.376 117.664-135.552 271.456-161.536-22.048 40.64 6.624 54.624 67.424 44.672 48.8-8.032 101.408-32.064 145.76-68v-180.128zM881.76 513.632c-16.32 213.472-167.456 337.344-373.344 337.344-207.584 0-357.504-124.704-373.312-337.76-9.568-0.704-51.264-6.336-60-9.664 9.28 231.008 200.064 399.872 433.312 399.872 232.48 0 422.784-167.584 433.28-397.536-8.48 2.528-59.264 7.744-59.936 7.744zM649.888 446.24c27.84 0 50.432-22.56 50.432-50.4 0-27.872-22.592-50.496-50.432-50.496-27.872 0-50.464 22.624-50.464 50.496 0 27.84 22.592 50.4 50.464 50.4zM374.112 446.24c27.872 0 50.464-22.56 50.464-50.4 0-27.872-22.592-50.496-50.464-50.496-27.84 0-50.432 22.624-50.432 50.496 0 27.84 22.592 50.4 50.432 50.4z" />
<glyph unicode="&#xe61e;" d="M1013.344 459.744c-14.624 124.448-143.84 124.448-257.856 124.448l-16.416-0.064c14.4 31.616 30.048 80.832 30.048 160.224 0 131.328-74.88 179.008-125.248 179.008-37.152 0-64.096-23.808-64.096-56.64 0-135.936-142.784-331.84-256.832-368.16v14.176h-322.944v-486.336h322.976v23.616l118.592-3.424c6.912 0 19.904-11.68 31.392-22.048 24.352-21.888 57.664-51.872 109.184-51.872h219.328c86.848 0 157.28 49.632 188.32 132.672 36.608 97.824 42.784 190.464 23.552 354.4zM944.256 122.336c-11.36-30.368-48.032-101.056-142.752-101.056h-219.328c-32.864 0-55.104 20-76.64 39.424-18.848 16.928-38.368 34.496-63.808 34.496h-0.032l-118.688 3.424v349.504c63.52 14.176 132.544 65.504 194.4 145.632 68.48 88.768 111.072 193.472 111.072 272.96 0 7.872 14.88 8 15.488 8 30.784 0 76.608-34.752 76.608-130.368 0-94.688-24.704-139.84-37.984-164.16-1.92-3.488-3.648-6.624-5.088-9.504l-17.952-35.264 95.968 0.128c141.024 0 201.312-11.328 209.536-81.504 18.208-155.232 12.736-242.016-20.8-331.712z" />
<glyph unicode="&#xe61f;" d="M512-6.56l-454.496 437.312 2.336 2.24c-38.784 50.816-59.84 112.64-59.84 176.992 0 161.312 131.232 292.576 292.576 292.576 85.12 0 164.32-36.448 219.424-99.36 55.104 62.944 134.304 99.36 219.424 99.36 161.344 0 292.576-131.264 292.576-292.576 0-64.32-20.992-126.016-59.68-176.736l1.824-1.888-23.008-24-431.136-413.92zM512 86.88l383.392 367.136c40.32 42.368 62.592 97.824 62.592 156 0 124.928-101.6 226.56-226.528 226.56-78.016 0-149.632-39.616-191.52-105.984l-27.936-44.288-27.936 44.256c-41.888 66.368-113.472 105.984-191.52 105.984-124.928 0-226.528-101.632-226.528-226.56 0-58.176 22.24-113.632 62.592-156l383.392-367.104z" />
<glyph unicode="&#xe620;" d="M446.592 870.24c-234.208-31.136-414.592-227.36-414.592-464.864 0-259.296 214.976-469.376 480.064-469.376 260 0 471.776 202.048 479.936 454.336v0h-87.264c-8.128-205.184-180.832-368.96-392.672-368.96-216.96 0-392.832 171.84-392.832 384 0 190.336 141.6 348.32 327.36 378.624l-0.256-97.664 152.992 145.664-152.736 128v-89.76z" />
<glyph unicode="&#xe621;" d="M285.696 312.256l90.496-90.496 135.808 135.744 135.84-135.744 90.56 90.496-135.84 135.744 135.808 135.776-90.56 90.496-135.808-135.776-135.808 135.776-90.496-90.496 135.776-135.776-135.776-135.744zM874.048 85.984c-199.936-199.968-524.128-199.968-724.128 0-199.936 199.968-199.936 524.096 0 724.064 200 199.936 524.192 199.968 724.128 0s199.936-524.16 0-724.064z" />
</font>
</defs>
</svg>
